<?xml version="1.0" encoding="UTF-8"?>
<svg id="Camada_1" data-name="Camada 1" xmlns="http://www.w3.org/2000/svg" viewBox="0 0 242.37 242.37">
  <defs>
    <style>
      .cls-1 {
        fill: #175347;
      }
    </style>
  </defs>
  <path class="cls-1" d="M79.44,133.1v.11s1.22,68.58,1.22,68.58l3.52,1.35,13.56-65.63,33.13,73.16s1.49.18,2.85-.1,1.96-.51,1.96-.51l-18.07-82.29,79.09,46.62,2.75-4.27-71.24-63.41,82.51-11.48-1.43-4.46-82.71-5.37,49.77-38.42-3.4-1.75-55.12,27.17,22.79-40.15-3.35-.62-34.36,36.33,1.35-35.11-3.64,1.48-11.2,33.77-15.72-22.79s-1.09.18-1.67.62-1.06,1.52-1.06,1.52l4.24,28.67-27.35-8.27-1.68,2.88,19.98,19.37-31.59,7.3-1.49,3.5,30.74,5.82-32.16,29.52s.5,2.05,1.86,1.54,33.69-15.63,33.69-15.63l-18.9,52.32s.65,1.26,1.17,1.71,1.44.77,1.44.77l28.52-43.85Z"/>
</svg>