<?xml version="1.0" encoding="UTF-8"?>
<svg id="Camada_1" data-name="Camada 1" xmlns="http://www.w3.org/2000/svg" viewBox="0 0 242.37 242.37">
  <defs>
    <style>
      .cls-1 {
        letter-spacing: -.02em;
      }

      .cls-2, .cls-3 {
        fill: #175347;
      }

      .cls-3 {
        font-family: TiemposHeadline-Light, 'Tiempos Headline';
        font-size: 33.85px;
        font-weight: 300;
      }

      .cls-4 {
        letter-spacing: .02em;
      }

      .cls-5 {
        fill: #f9ebd8;
      }
    </style>
  </defs>
  <rect class="cls-5" x="0" width="242.37" height="242.37" rx="30.05" ry="30.05"/>
  <g>
    <path class="cls-2" d="M51.59,121.82v.02s.25,13.95.25,13.95l.72.28,2.76-13.35,6.74,14.88s.3.04.58-.02.4-.1.4-.1l-3.67-16.74,16.09,9.48.56-.87-14.49-12.9,16.78-2.33-.29-.91-16.82-1.09,10.12-7.81-.69-.36-11.21,5.53,4.64-8.17-.68-.13-6.99,7.39.27-7.14-.74.3-2.28,6.87-3.2-4.64s-.22.04-.34.13-.22.31-.22.31l.86,5.83-5.56-1.68-.34.59,4.06,3.94-6.43,1.49-.3.71,6.25,1.18-6.54,6s.1.42.38.31,6.85-3.18,6.85-3.18l-3.84,10.64s.13.26.24.35.29.16.29.16l5.8-8.92Z"/>
    <text class="cls-3" transform="translate(85.85 129.99) scale(1.01 1)"><tspan class="cls-1" x="0" y="0">P</tspan><tspan class="cls-4" x="18.99" y="0">o</tspan><tspan x="37.2" y="0">omar</tspan></text>
  </g>
</svg>